<svg data-name="Logo Sky Blue Crayola" xmlns="http://www.w3.org/2000/svg" width="323" height="309.159"><defs><clipPath id="a"><path data-name="Clip 2" d="M0 0h178.135v309.159H0Z" fill="none"/></clipPath><clipPath id="b"><path data-name="Clip 39" d="M0 309.159h323V0H0Z" fill="none"/></clipPath></defs><g data-name="Group 3"><path data-name="Clip 2" d="M144.865 0H323v309.159H144.865Z" fill="none"/><g data-name="Group 3" clip-path="url(#a)" transform="translate(144.865)"><path data-name="Fill 1" d="M171.98 256.648a295.693 295.693 0 0 1-29.062 39.036c-16.927 18.974-32.153 14.2-46.595 7.986-29.935-12.831-56.759-25.365-59.043-55.8-2.575-34.146-2.709-83.507-2.709-85.259 0-4.707-.044-14.993-9.224-21.522C11.4 131.167.537 119.725 0 101.411V4.549A4.5 4.5 0 0 1 4.478 0h12a4.5 4.5 0 0 1 4.478 4.549v56.417a138.977 138.977 0 0 0 .425 15.013c.784 9.918 11.061 10.191 11.061-2.8 0-1.434.022-7.235.022-12.216.024-4.14.024-7.711.024-7.711.066-12.263.179-34.828.4-35.876A21.493 21.493 0 0 1 53.894 0H62.4a20.438 20.438 0 0 1 15.026 6.505c4.411 4.5 42.049 45.406 48.81 53.163 9.764 11.216 16.345 22.317 19.078 32.667 7.5 27.822 22.233 83.556 29.42 114.994 4.859 21.019 4.993 36.966-2.753 49.318" fill="#68d2df"/></g></g><path data-name="Fill 4" d="M22.059 52.877V40.144h7.211v11.595c0 4.361.772 6.018 3.435 6.018s3.432-1.657 3.432-6.018v-48.4h7.383v49.538c0 7.238-4.034 11.513-10.729 11.513s-10.732-4.275-10.732-11.513" fill="#fff"/><path data-name="Fill 6" d="m54.078 63.52-7.039-.001 6.867-60.18h9.873l6.866 60.178h-7.469l-1.372-13.954h-6.353l-1.372 13.956Zm4.461-51.807-2.574 31.396h5.324l-2.577-31.4Z" fill="#fff"/><path data-name="Fill 8" d="M74.593 3.339h7.383v24.594h7.639V3.339h7.378v60.178h-7.378V34.389h-7.639v29.128h-7.383Z" fill="#fff"/><path data-name="Fill 10" d="m110.213 63.519-7.381-.002V3.339h10.73c3.714 0 6.533.99 8.381 2.944s2.779 4.921 2.779 8.831v6.454c0 5.089-1.545 8.284-4.723 9.768v.174c3.222 1.5 4.723 4.58 4.723 9.679v22.326h-7.384v-22.15c0-2.581-.367-4.148-1.191-5.081-.8-.9-2.058-1.287-4.216-1.287h-1.718v28.522Zm0-53.726v18.753h2.576c3.613 0 4.549-1.31 4.549-6.37V16.16c0-5.058-.935-6.367-4.549-6.367Z" fill="#fff"/><path data-name="Fill 12" d="m0 134.624 13.734-47.88H.859V80.29h20.688v5.844L7.813 134.013h13.734v6.455H0Z" fill="#fff"/><path data-name="Fill 14" d="M25.751 80.29h18.971v6.454H33.134v18.139h10.042v6.455H33.134v22.676h11.588v6.454H25.751Z" fill="#fff"/><path data-name="Fill 16" d="M48.927 80.29h7.383v24.593h7.639V80.29h7.378v60.178h-7.378v-29.13H56.31v29.13h-7.383Z" fill="#fff"/><path data-name="Fill 18" d="M77.167 80.29h9.357l7.3 38.113h.173V80.29h6.522v60.178h-7.9l-8.752-46.137h-.176v46.137h-6.524Z" fill="#fff"/><path data-name="Fill 20" d="M111.672 86.744h-7.211V80.29h21.8v6.454h-7.207v53.724h-7.382Z" fill="#fff"/><path data-name="Fill 22" d="M63.09 217.418H52.102V157.24H63.09c3.714 0 6.533.99 8.381 2.944s2.779 4.92 2.779 8.83v36.626c0 3.91-.935 6.881-2.779 8.83s-4.669 2.948-8.381 2.948Zm-3.606-53.722v47.268h2.834c3.613 0 4.549-1.309 4.549-6.367v-34.536c0-5.057-.935-6.365-4.549-6.365Z" fill="#fff"/><path data-name="Fill 24" d="M79.655 157.24h18.971v6.454H87.038v18.139H97.08v6.455H87.038v22.676h11.588v6.454H79.655Z" fill="#fff"/><path data-name="Fill 26" d="m110.213 217.42-7.381-.002V157.24h10.73c3.714 0 6.533.99 8.381 2.944s2.779 4.92 2.779 8.83v6.454c0 5.091-1.545 8.286-4.723 9.768v.176c3.222 1.5 4.723 4.579 4.723 9.679v22.325h-7.384v-22.152c0-2.581-.367-4.148-1.191-5.08-.8-.9-2.058-1.287-4.216-1.287h-1.718v28.523Zm0-53.726v18.746h2.576c3.613 0 4.549-1.309 4.549-6.367v-6.012c0-5.058-.935-6.367-4.549-6.367Z" fill="#fff"/><path data-name="Fill 28" d="M1.631 234.192h7.383v53.724h10.729v6.454H1.631Z" fill="#fff"/><path data-name="Fill 30" d="M23.432 283.73v-49.538h7.384v48.4c0 4.361.857 6.018 3.519 6.018s3.519-1.657 3.519-6.018v-48.4h7.212v49.538c0 7.238-4.121 11.513-10.818 11.513s-10.816-4.275-10.816-11.513" fill="#fff"/><path data-name="Fill 32" d="M50.729 234.192h9.357l7.3 38.113h.173v-38.113h6.522v60.178h-7.9l-8.752-46.137h-.176v46.137h-6.524Z" fill="#fff"/><path data-name="Fill 34" d="M79.569 285.299v-40.205c0-7.415 4.207-11.774 10.988-11.774 6.867 0 10.9 4.359 10.9 11.774v6.626h-7.123v-5.493c0-4.534-.944-6.279-3.69-6.279s-3.692 1.745-3.692 6.279v38.288c0 2.79.944 4.1 3.177 4.1 2.832 0 4.291-2.182 4.291-6.281v-15.35h-3.691v-6.277h10.9v33.663h-6.26v-4.45h-.257c-1.376 3.487-3.864 5.32-7.384 5.32-5.069.003-8.159-3.748-8.159-9.941" fill="#fff"/><path data-name="Fill 36" d="M106.952 234.192h18.971v6.452h-11.588v18.142h10.042v6.454h-10.042v22.676h11.588v6.454h-18.971Z" fill="#fff"/><g data-name="Group 2"><path data-name="Clip 39" d="M0 309.159h323V0H0Z" fill="none"/><g data-name="Mask Group 3" clip-path="url(#b)"><path data-name="Fill 38" d="M129.197 40.057h9.418v-7.02h-9.418Z" fill="#fff"/></g></g></svg>